<svg width="86" height="89" viewBox="0 0 86 89" fill="none" xmlns="http://www.w3.org/2000/svg">
<path d="M19.5 12.6392C21.1 11.7392 22.7 10.8392 24.5 10.1392C28.2 8.63922 31.9 7.73922 35.7 7.33922L39.9 12.1392L38 17.0392C34.2 17.7392 30.7 19.1392 27.3 21.1392L26.6 21.5392L25.9 15.1392L19.5 12.6392ZM17.7 13.7392L24.3 16.3392L25 22.7392C21.4 25.3392 18.6 28.7392 16.6 32.8392C16.4 33.1392 16.3 33.5392 16.1 33.9392L11.5 28.2392L3.9 29.8392C5.8 25.7392 8.3 22.0392 11.6 18.8392C13.4 16.9392 15.5 15.2392 17.7 13.7392ZM61.5 58.4392C62.2 57.2392 62.8 56.0392 63.3 54.7392L70.5 63.4392L82.6 60.8392C81.9 62.7392 81.1 64.6392 80.2 66.4392C77.7 71.2392 74.4 75.3392 70.4 78.9392C66.3 82.5392 61.6 85.1392 56.4 86.7392C56.3 86.7392 56.2 86.7392 56.1 86.8392L47.2 79.2392L49.5 68.9392C49.5 68.9392 49.6 68.9392 49.7 68.9392C54.6 66.8392 58.6 63.2392 61.5 58.4392ZM76.6 17.7392C77.3 18.7392 78 19.8392 78.7 20.9392C81.4 25.5392 83.3 30.5392 84.4 35.8392C85.4 41.0392 85.6 46.3392 84.8 51.6392C84.5 54.1392 83.9 56.6392 83.1 59.0392L71 61.6392L63.8 52.9392C64.7 49.7392 64.7 46.4392 64 42.8392C63.2 38.6392 61.4 35.1392 58.6 32.2392L71.6 30.6392L76.6 17.7392ZM3 31.7392L10.8 30.0392L15.4 35.6392C14 39.7392 13.7 43.8392 14.4 48.2392C14.6 49.4392 14.9 50.6392 15.2 51.8392L7 49.9392L1.1 56.8392C0.399998 53.7392 0 50.5392 0 47.3392C0 41.9392 1 36.7392 3 31.7392C3 31.8392 3 31.8392 3 31.7392ZM15.8 53.8392C17 56.9392 18.7 59.8392 21 62.4392C22.8 64.4392 24.7 66.0392 26.8 67.3392L18.6 72.0392L19 82.7392C16.3 81.0392 13.8 79.0392 11.6 76.7392C7.8 72.8392 4.9 68.3392 2.9 63.3392C2.4 61.9392 1.9 60.5392 1.5 59.1392L7.5 52.0392L15.8 53.8392ZM28.6 68.2392C30.4 69.1392 32.2 69.8392 34.2 70.2392C38.7 71.2392 43 71.1392 47.3 69.7392L45 79.9392L53.8 87.4392C49.4 88.6392 44.9 89.1392 40.2 88.9392C34.8 88.7392 29.6 87.6392 24.7 85.5392C23.4 84.9392 22.1 84.3392 20.8 83.6392L20.4 72.9392L28.6 68.2392ZM75.3 16.1392L70.4 29.0392L57 30.6392C56.6 30.3392 56.2 29.9392 55.8 29.6392C51.4 26.3392 46.5 24.3392 40.9 23.8392C39.6 23.7392 38.4 23.7392 37.2 23.7392L41.9 11.7392L31.8 0.239228C34.8 0.039228 37.9 -0.060769 40.9 0.039231C42.7 0.039231 44.5 0.239225 46.3 0.439225C48.8 0.739225 51.3 1.23922 53.8 1.93922C59 3.43922 63.8 5.83923 68.1 9.03923C70.8 11.1392 73.2 13.4392 75.3 16.1392Z" fill="#4CAF50"/>
</svg>
