<svg width="24" height="24" viewBox="0 0 24 24" fill="none" xmlns="http://www.w3.org/2000/svg">
<path d="M11.322 2.923C11.448 2.664 11.712 2.5 12 2.5C12.289 2.5 12.552 2.664 12.678 2.923C13.652 4.921 15.328 8.363 15.328 8.363C15.328 8.363 19.139 8.887 21.35 9.192C21.753 9.247 22 9.588 22 9.939C22 10.129 21.928 10.322 21.769 10.475C20.159 12.013 17.387 14.666 17.387 14.666C17.387 14.666 18.064 18.433 18.456 20.618C18.539 21.08 18.181 21.5 17.714 21.5C17.592 21.5 17.47 21.471 17.359 21.411C15.391 20.363 12 18.56 12 18.56C12 18.56 8.609 20.363 6.641 21.411C6.53 21.471 6.407 21.5 6.285 21.5C5.82 21.5 5.46 21.079 5.544 20.618C5.937 18.433 6.614 14.666 6.614 14.666C6.614 14.666 3.841 12.013 2.232 10.475C2.072 10.322 2 10.129 2 9.94C2 9.588 2.249 9.246 2.651 9.192C4.862 8.887 8.672 8.363 8.672 8.363C8.672 8.363 10.349 4.921 11.322 2.923V2.923ZM12 4.956L9.639 9.748L4.393 10.467L8.241 14.11L7.293 19.365L12 16.86L16.707 19.365L15.756 14.129L19.607 10.467L14.293 9.711L12 4.956Z" fill="#D7DBD3"/>
</svg>
