<svg width="147" height="37" viewBox="0 0 147 37" fill="none" xmlns="http://www.w3.org/2000/svg">
<path d="M12 2V1H11C8.15886 1 5.75641 2.39638 3.81243 4.9667L3.81242 4.96669L3.80976 4.97023C1.92229 7.48893 1 10.5226 1 14.0158V35V36H2C4.8331 36 7.20864 34.6402 9.09896 32.1185C11.0437 29.5464 12 26.4848 12 22.9842V2Z" stroke="#729D4C" stroke-width="2"/>
<path d="M17.4055 24V12.216H19.6855L19.9015 13.992H19.9975C20.5575 13.416 21.1735 12.928 21.8455 12.528C22.5335 12.128 23.3335 11.928 24.2455 11.928C25.6055 11.928 26.6055 12.344 27.2455 13.176C27.8855 14.008 28.2055 15.184 28.2055 16.704V24H25.4215V17.064C25.4215 16.12 25.2535 15.424 24.9175 14.976C24.5815 14.528 24.0135 14.304 23.2135 14.304C22.6375 14.304 22.1255 14.44 21.6775 14.712C21.2295 14.984 20.7335 15.4 20.1895 15.96V24H17.4055ZM36.6921 29.208C35.6041 29.208 34.6601 29.088 33.8601 28.848C33.0601 28.624 32.4361 28.28 31.9881 27.816C31.5401 27.352 31.3161 26.768 31.3161 26.064C31.3161 25.6 31.4761 25.152 31.7961 24.72C32.1161 24.288 32.5801 23.912 33.1881 23.592V23.496C32.8841 23.304 32.6041 23.056 32.3481 22.752C32.1081 22.432 31.9881 22.024 31.9881 21.528C31.9881 21.144 32.1161 20.752 32.3721 20.352C32.6281 19.952 32.9721 19.608 33.4041 19.32V19.224C32.9881 18.92 32.6281 18.512 32.3241 18C32.0361 17.472 31.8921 16.864 31.8921 16.176C31.8921 15.264 32.1161 14.496 32.5641 13.872C33.0121 13.232 33.6041 12.752 34.3401 12.432C35.0761 12.096 35.8761 11.928 36.7401 11.928C37.4441 11.928 38.0601 12.024 38.5881 12.216H43.4121V14.328H40.7001C40.9081 14.552 41.0841 14.84 41.2281 15.192C41.3881 15.528 41.4681 15.888 41.4681 16.272C41.4681 17.136 41.2521 17.872 40.8201 18.48C40.4041 19.072 39.8441 19.52 39.1401 19.824C38.4361 20.128 37.6361 20.28 36.7401 20.28C36.4681 20.28 36.1721 20.256 35.8521 20.208C35.5481 20.144 35.2441 20.056 34.9401 19.944C34.7001 20.088 34.5161 20.248 34.3881 20.424C34.2761 20.6 34.2201 20.808 34.2201 21.048C34.2201 21.416 34.4041 21.696 34.7721 21.888C35.1561 22.064 35.7161 22.152 36.4521 22.152H38.8521C40.3881 22.152 41.5401 22.376 42.3081 22.824C43.0921 23.256 43.4841 23.992 43.4841 25.032C43.4841 25.8 43.2041 26.504 42.6441 27.144C42.1001 27.784 41.3161 28.288 40.2921 28.656C39.2841 29.024 38.0841 29.208 36.6921 29.208ZM36.7401 18.528C37.1561 18.528 37.5321 18.44 37.8681 18.264C38.2041 18.072 38.4681 17.8 38.6601 17.448C38.8681 17.096 38.9721 16.672 38.9721 16.176C38.9721 15.696 38.8681 15.288 38.6601 14.952C38.4681 14.6 38.2041 14.328 37.8681 14.136C37.5321 13.944 37.1561 13.848 36.7401 13.848C36.3401 13.848 35.9721 13.944 35.6361 14.136C35.3001 14.328 35.0281 14.6 34.8201 14.952C34.6121 15.288 34.5081 15.696 34.5081 16.176C34.5081 16.672 34.6121 17.096 34.8201 17.448C35.0281 17.8 35.3001 18.072 35.6361 18.264C35.9721 18.44 36.3401 18.528 36.7401 18.528ZM37.0281 27.384C37.7961 27.384 38.4601 27.296 39.0201 27.12C39.5961 26.944 40.0361 26.712 40.3401 26.424C40.6601 26.136 40.8201 25.824 40.8201 25.488C40.8201 25.024 40.6201 24.712 40.2201 24.552C39.8361 24.408 39.2441 24.336 38.4441 24.336H36.5721C36.1881 24.336 35.8521 24.32 35.5641 24.288C35.2761 24.256 35.0121 24.216 34.7721 24.168C34.3561 24.408 34.0601 24.656 33.8841 24.912C33.7081 25.168 33.6201 25.432 33.6201 25.704C33.6201 26.232 33.9161 26.64 34.5081 26.928C35.1001 27.232 35.9401 27.384 37.0281 27.384ZM52.1388 24.288C50.9388 24.288 49.8508 24.048 48.8748 23.568C47.8988 23.072 47.1228 22.368 46.5468 21.456C45.9708 20.528 45.6828 19.408 45.6828 18.096C45.6828 16.816 45.9708 15.72 46.5468 14.808C47.1228 13.88 47.8748 13.168 48.8028 12.672C49.7308 12.176 50.7228 11.928 51.7788 11.928C52.9468 11.928 53.9308 12.168 54.7308 12.648C55.5468 13.128 56.1628 13.792 56.5788 14.64C57.0108 15.472 57.2268 16.432 57.2268 17.52C57.2268 17.792 57.2108 18.056 57.1788 18.312C57.1628 18.552 57.1388 18.752 57.1068 18.912H47.6748V16.944H55.3308L54.8028 17.568C54.8028 16.4 54.5388 15.528 54.0108 14.952C53.4988 14.36 52.7788 14.064 51.8508 14.064C51.1948 14.064 50.6028 14.216 50.0748 14.52C49.5628 14.824 49.1548 15.28 48.8508 15.888C48.5468 16.48 48.3948 17.216 48.3948 18.096C48.3948 19.008 48.5628 19.76 48.8988 20.352C49.2508 20.944 49.7308 21.392 50.3388 21.696C50.9628 22 51.6828 22.152 52.4988 22.152C53.1228 22.152 53.6988 22.064 54.2268 21.888C54.7548 21.712 55.2828 21.472 55.8108 21.168L56.7468 22.896C56.1228 23.296 55.4188 23.632 54.6348 23.904C53.8508 24.16 53.0188 24.288 52.1388 24.288ZM68.2094 24.288C66.8494 24.288 65.8094 23.888 65.0894 23.088C64.3854 22.272 64.0334 21.144 64.0334 19.704V9.24H60.1934V7.056H66.7934V19.848C66.7934 20.648 66.9934 21.216 67.3934 21.552C67.8094 21.872 68.3134 22.032 68.9054 22.032C69.2094 22.032 69.5214 22 69.8414 21.936C70.1614 21.856 70.5214 21.736 70.9214 21.576L71.5694 23.616C71.0094 23.808 70.4814 23.968 69.9854 24.096C69.5054 24.224 68.9134 24.288 68.2094 24.288ZM80.896 24.288C80.336 24.288 79.752 24.152 79.144 23.88C78.552 23.608 77.992 23.216 77.464 22.704H77.392L77.152 24H74.968V7.056H77.752V11.424L77.632 13.488H77.704C78.2 13.008 78.76 12.632 79.384 12.36C80.024 12.072 80.664 11.928 81.304 11.928C82.328 11.928 83.192 12.176 83.896 12.672C84.616 13.168 85.168 13.864 85.552 14.76C85.936 15.64 86.128 16.688 86.128 17.904C86.128 19.248 85.88 20.4 85.384 21.36C84.888 22.304 84.24 23.032 83.44 23.544C82.656 24.04 81.808 24.288 80.896 24.288ZM80.344 22.008C80.888 22.008 81.384 21.856 81.832 21.552C82.28 21.248 82.632 20.8 82.888 20.208C83.144 19.6 83.272 18.848 83.272 17.952C83.272 17.168 83.176 16.496 82.984 15.936C82.792 15.376 82.496 14.952 82.096 14.664C81.712 14.36 81.192 14.208 80.536 14.208C80.088 14.208 79.632 14.32 79.168 14.544C78.704 14.768 78.232 15.128 77.752 15.624V20.928C78.184 21.312 78.632 21.592 79.096 21.768C79.56 21.928 79.976 22.008 80.344 22.008ZM95.3106 24.288C94.1106 24.288 93.0226 24.048 92.0466 23.568C91.0706 23.072 90.2946 22.368 89.7186 21.456C89.1426 20.528 88.8546 19.408 88.8546 18.096C88.8546 16.816 89.1426 15.72 89.7186 14.808C90.2946 13.88 91.0466 13.168 91.9746 12.672C92.9026 12.176 93.8946 11.928 94.9506 11.928C96.1186 11.928 97.1026 12.168 97.9026 12.648C98.7186 13.128 99.3346 13.792 99.7506 14.64C100.183 15.472 100.399 16.432 100.399 17.52C100.399 17.792 100.383 18.056 100.351 18.312C100.335 18.552 100.311 18.752 100.279 18.912H90.8466V16.944H98.5026L97.9746 17.568C97.9746 16.4 97.7106 15.528 97.1826 14.952C96.6706 14.36 95.9506 14.064 95.0226 14.064C94.3666 14.064 93.7746 14.216 93.2466 14.52C92.7346 14.824 92.3266 15.28 92.0226 15.888C91.7186 16.48 91.5666 17.216 91.5666 18.096C91.5666 19.008 91.7346 19.76 92.0706 20.352C92.4226 20.944 92.9026 21.392 93.5106 21.696C94.1346 22 94.8546 22.152 95.6706 22.152C96.2946 22.152 96.8706 22.064 97.3986 21.888C97.9266 21.712 98.4546 21.472 98.9826 21.168L99.9186 22.896C99.2946 23.296 98.5906 23.632 97.8066 23.904C97.0226 24.16 96.1906 24.288 95.3106 24.288ZM104.901 24V12.216H107.181L107.421 14.88H107.493C108.085 13.92 108.813 13.192 109.677 12.696C110.557 12.184 111.501 11.928 112.509 11.928C112.989 11.928 113.405 11.968 113.757 12.048C114.109 12.128 114.453 12.248 114.789 12.408L114.213 14.736C113.829 14.608 113.485 14.52 113.181 14.472C112.893 14.408 112.525 14.376 112.077 14.376C111.277 14.376 110.493 14.608 109.725 15.072C108.973 15.536 108.293 16.344 107.685 17.496V24H104.901ZM125.556 24.288C124.356 24.288 123.404 24.08 122.7 23.664C121.996 23.232 121.492 22.64 121.188 21.888C120.884 21.136 120.732 20.264 120.732 19.272V14.4H117.588V12.336L120.852 12.216L121.212 8.52H123.492V12.216H128.868V14.4H123.492V19.248C123.492 19.888 123.58 20.424 123.756 20.856C123.932 21.272 124.22 21.584 124.62 21.792C125.02 21.984 125.548 22.08 126.204 22.08C126.716 22.08 127.18 22.04 127.596 21.96C128.012 21.88 128.412 21.768 128.796 21.624L129.324 23.616C128.796 23.792 128.228 23.944 127.62 24.072C127.012 24.216 126.324 24.288 125.556 24.288Z" fill="#D8DCCC"/>
<path d="M133.02 9.69L129.16 7.19V6.17L133.02 3.67V5L130.37 6.66V6.7L133.02 8.36V9.69ZM134.986 11.6L138.276 2.9H139.506L136.216 11.6H134.986ZM141.472 9.69V8.36L144.122 6.7V6.66L141.472 5V3.67L145.332 6.17V7.19L141.472 9.69Z" fill="#D8DCCC"/>
</svg>
