<svg width="85" height="80" viewBox="0 0 85 80" fill="none" xmlns="http://www.w3.org/2000/svg">
<path d="M34.7216 79.189C33.6803 79.189 32.639 78.9018 31.7054 78.3632L22.1184 72.7259C20.718 71.9 21.4002 71.6128 21.867 71.4691C23.7701 70.7869 24.1651 70.6433 26.2117 69.4943C26.4272 69.3866 26.7144 69.4225 26.9299 69.5661L34.2907 73.9108C34.542 74.0544 34.937 74.0544 35.1524 73.9108L63.8417 57.3579C64.129 57.2143 64.3085 56.8911 64.3085 56.568V23.4622C64.3085 23.139 64.129 22.8518 63.8417 22.6722L35.1883 6.15526C34.9011 5.97573 34.542 5.97573 34.2907 6.15526L5.6014 22.6722C5.35006 22.8518 5.17052 23.1749 5.17052 23.4622V56.568C5.17052 56.8911 5.35006 57.2143 5.6014 57.3579L13.4649 61.8821C17.7378 64.0365 20.359 61.523 20.359 58.9737V26.2988C20.359 25.832 20.718 25.4729 21.1848 25.4729H24.8114C25.2781 25.4729 25.6372 25.832 25.6372 26.2988V58.9737C25.6372 64.6828 22.5493 67.9503 17.1633 67.9503C15.5116 67.9503 14.183 67.9503 10.5565 66.155L3.01613 61.8103C1.1849 60.7331 0 58.7223 0 56.568V23.4622C0 21.3078 1.1849 19.297 3.01613 18.2557L31.7054 1.66695C33.5366 0.625664 35.9424 0.625664 37.7377 1.66695L66.427 18.2557C68.2941 19.3329 69.4431 21.3078 69.4431 23.4622V56.568C69.4431 58.7223 68.2941 60.7331 66.427 61.8103L37.7377 78.3632C36.84 78.9018 35.7988 79.189 34.7216 79.189V79.189Z" fill="#60A563"/>
<path d="M43.5904 56.3885C31.0231 56.3885 28.402 50.6075 28.402 45.796C28.402 45.3293 28.761 44.9702 29.2278 44.9702H32.9262C33.3571 44.9702 33.7161 45.2575 33.7521 45.6524C34.3266 49.4226 35.9782 51.3256 43.5904 51.3256C49.6227 51.3256 52.208 49.9612 52.208 46.7655C52.208 44.8984 51.4899 43.5339 42.0824 42.6363C34.2188 41.8463 29.3715 40.1228 29.3715 33.8392C29.3715 28.0583 34.2547 24.5753 42.4414 24.5753C51.6335 24.5753 56.1577 27.771 56.7322 34.6291C56.7681 34.8446 56.6963 35.0959 56.5167 35.2755C56.3731 35.4191 56.1577 35.5268 55.9063 35.5268H52.208C51.813 35.5268 51.4898 35.2395 51.3821 34.8805C50.4845 30.8949 48.3301 29.6381 42.4414 29.6381C35.8346 29.6381 35.0806 31.9362 35.0806 33.6597C35.0806 35.7422 35.9783 36.3526 44.8831 37.5376C53.716 38.6866 57.8812 40.3383 57.8812 46.5501C57.8812 52.7978 52.6747 56.3885 43.5904 56.3885V56.3885Z" fill="#60A563"/>
<path fill-rule="evenodd" clip-rule="evenodd" d="M84.9547 21.6668C84.9547 24.683 82.4772 27.1964 79.4251 27.1964C76.409 27.1964 73.8955 24.7189 73.8955 21.6668C73.8955 18.507 76.4808 16.1372 79.4251 16.1372C82.4054 16.1372 84.9547 18.507 84.9547 21.6668ZM74.7932 21.6309C74.7932 24.2162 76.8758 26.2987 79.4251 26.2987C81.9745 26.2987 84.057 24.1803 84.057 21.6309C84.057 19.0456 81.9745 16.999 79.4251 16.999C76.9117 16.999 74.7932 19.0456 74.7932 21.6309ZM77.3425 18.5429H79.4969C80.215 18.5429 81.6513 18.5429 81.6513 20.1946C81.6513 21.3437 80.9332 21.5591 80.4664 21.7027C81.3281 21.7745 81.4 22.3131 81.5077 23.1031C81.5436 23.6058 81.6513 24.4675 81.8308 24.7548H80.5023C80.4664 24.4675 80.2869 22.8876 80.2869 22.7799C80.1791 22.4567 80.0714 22.2772 79.6405 22.2772H78.5633V24.7548H77.3425V18.5429ZM78.5275 21.2718H79.4969C80.2869 21.2718 80.4305 20.6973 80.4305 20.3742C80.4305 19.5483 79.8201 19.5483 79.4969 19.5483H78.5275V21.2718Z" fill="#60A563"/>
</svg>
