<svg width="82" height="82" viewBox="0 0 82 82" fill="none" xmlns="http://www.w3.org/2000/svg">
<path d="M73.9922 0H8.00781C3.58522 0 0 3.58522 0 8.00781V73.9922C0 78.4148 3.58522 82 8.00781 82H73.9922C78.4148 82 82 78.4148 82 73.9922V8.00781C82 3.58522 78.4148 0 73.9922 0Z" fill="#3178C6"/>
<path d="M73.9922 0H8.00781C3.58522 0 0 3.58522 0 8.00781V73.9922C0 78.4148 3.58522 82 8.00781 82H73.9922C78.4148 82 82 78.4148 82 73.9922V8.00781C82 3.58522 78.4148 0 73.9922 0Z" fill="#3178C6"/>
<path fill-rule="evenodd" clip-rule="evenodd" d="M50.7598 65.2515V73.2691C52.0631 73.9373 53.6046 74.4382 55.3843 74.7723C57.1639 75.1064 59.0395 75.2734 61.0114 75.2734C62.9331 75.2734 64.7585 75.0897 66.4881 74.7222C68.2176 74.3548 69.7341 73.7492 71.0375 72.9057C72.3408 72.0623 73.3727 70.9598 74.133 69.5985C74.8932 68.2371 75.2734 66.5544 75.2734 64.55C75.2734 63.0968 75.0563 61.8232 74.6218 60.7292C74.1873 59.6351 73.5607 58.6622 72.7418 57.8103C71.9231 56.9585 70.9414 56.1942 69.7967 55.5177C68.6521 54.8412 67.3612 54.2023 65.9242 53.6011C64.8714 53.1667 63.9273 52.7451 63.0918 52.3359C62.2563 51.9265 61.5461 51.509 60.9612 51.0831C60.3763 50.6571 59.9252 50.2061 59.6078 49.7301C59.2903 49.254 59.1314 48.7154 59.1314 48.114C59.1314 47.5629 59.2735 47.0659 59.5576 46.6232C59.8417 46.1806 60.2428 45.8007 60.7607 45.4833C61.2788 45.166 61.9137 44.9195 62.6656 44.7441C63.4177 44.5688 64.2531 44.4812 65.1722 44.4812C65.8406 44.4812 66.5465 44.5313 67.2901 44.6314C68.0337 44.7316 68.7815 44.8862 69.5336 45.0949C70.2855 45.3037 71.0165 45.5669 71.7268 45.8841C72.4369 46.2016 73.0928 46.569 73.6943 46.9866V39.4952C72.4745 39.0275 71.1419 38.6809 69.6965 38.4554C68.2511 38.2299 66.5925 38.1172 64.7211 38.1172C62.816 38.1172 61.0114 38.3219 59.307 38.7311C57.6026 39.1403 56.1029 39.7791 54.8077 40.6477C53.5127 41.5163 52.4893 42.6229 51.7374 43.9675C50.9854 45.312 50.6094 46.9197 50.6094 48.7905C50.6094 51.1791 51.2987 53.2169 52.6773 54.904C54.0558 56.5909 56.1487 58.019 58.9561 59.1883C60.0589 59.6393 61.0866 60.0818 62.0391 60.5162C62.9915 60.9505 63.8146 61.4015 64.5079 61.8692C65.2014 62.3368 65.7486 62.8463 66.1498 63.3975C66.5508 63.9486 66.7514 64.575 66.7514 65.2766C66.7514 65.7944 66.626 66.2746 66.3753 66.7172C66.1247 67.1599 65.7445 67.544 65.2348 67.8697C64.7252 68.1955 64.0902 68.4501 63.3299 68.6338C62.5695 68.8177 61.6799 68.9095 60.6605 68.9095C58.9226 68.9095 57.2016 68.6047 55.497 67.995C53.7926 67.3854 52.2135 66.4709 50.7598 65.2515V65.2515ZM37.2812 45.4975H47.5664V38.918H18.8984V45.4975H29.1334V74.793H37.2812V45.4975Z" fill="white"/>
</svg>
